<svg version="1.1" id="Layer_1" xmlns="http://www.w3.org/2000/svg" xmlns:xlink="http://www.w3.org/1999/xlink" x="0px" y="0px"
	 width="100%" viewBox="0 0 1516 554" enable-background="new 0 0 1516 554" xml:space="preserve">
<path fill="#000000" opacity="1.000000" stroke="none" 
	d="
M395.000000,555.000000 
	C346.643341,555.000000 298.286682,555.000000 249.438583,554.582825 
	C249.790817,553.785583 250.601013,553.207275 251.483688,553.058167 
	C256.511871,552.209290 261.548828,551.401489 266.599548,550.700439 
	C270.713226,550.129456 272.229279,548.164307 272.114441,543.781921 
	C271.787292,531.299683 271.999847,518.803284 272.000000,506.312469 
	C272.000031,503.374573 272.000000,500.436676 272.000000,497.306183 
	C267.646820,497.306183 263.965759,496.870483 260.428070,497.397339 
	C253.185272,498.475922 244.951859,495.182343 242.382538,488.418427 
	C240.144043,482.525421 238.244980,476.071075 238.204407,469.851624 
	C238.042847,445.087708 238.609695,420.317657 239.027420,395.551941 
	C239.200806,385.271393 239.527008,374.988068 240.064636,364.720703 
	C240.470169,356.975983 241.527695,349.264801 241.912033,341.519684 
	C242.226654,335.179688 241.976105,328.811676 241.976105,322.000336 
	C240.559204,322.000336 238.921143,322.000336 237.283096,322.000336 
	C221.794479,322.000336 206.305847,321.994232 190.817230,322.003235 
	C184.705551,322.006805 184.143539,322.574524 184.009338,328.835205 
	C183.966507,330.832855 184.133713,332.843079 183.971252,334.828491 
	C183.554672,339.919037 183.006989,344.998840 182.474930,350.460754 
	C178.888336,346.340912 176.060532,342.411713 172.568726,339.205597 
	C160.643585,328.256134 146.922043,321.085815 130.616348,318.642731 
	C112.193542,315.882477 94.075699,315.907257 76.167397,321.423950 
	C56.633804,327.441315 40.918499,338.851654 27.812244,354.500732 
	C14.145127,370.819458 6.827858,389.695282 2.930062,410.248627 
	C2.739835,411.251678 1.663635,412.086731 0.999998,413.000000 
	C1.000000,275.717651 1.000000,138.435287 1.000000,1.000000 
	C250.023300,1.000000 499.046631,1.000000 748.608643,1.375703 
	C748.492432,2.180139 747.892090,2.767275 747.174622,3.014678 
	C722.405029,11.556540 697.615723,20.041464 672.847656,28.587990 
	C650.255432,36.383732 627.680847,44.230541 605.115784,52.104511 
	C604.037476,52.480778 603.126953,53.337784 601.457031,54.407185 
	C613.566406,58.081615 624.734619,61.520565 635.947327,64.807648 
	C637.306396,65.206039 639.008911,65.116013 640.376038,64.688683 
	C647.280396,62.530460 654.134644,60.209789 660.991638,57.902092 
	C690.686523,47.908333 720.354919,37.834946 750.104858,28.007994 
	C752.710144,27.147409 756.040588,27.184328 758.687927,27.970438 
	C770.853638,31.582994 782.914185,35.555458 794.979553,39.499443 
	C819.887146,47.641376 844.763916,55.878120 869.688538,63.967152 
	C871.624695,64.595505 873.942383,64.864342 875.899170,64.444649 
	C880.072998,63.549431 884.147400,62.157856 888.224182,60.850281 
	C895.011353,58.673382 901.768311,56.402683 909.354187,53.902489 
	C907.507141,52.945393 906.678894,52.374287 905.762451,52.061840 
	C874.398926,41.369049 843.029846,30.692690 811.655273,20.032389 
	C795.576233,14.569138 779.474365,9.172582 763.420349,3.636958 
	C762.130554,3.192198 761.133240,1.898964 760.000000,1.000007 
	C1012.246704,1.000000 1264.493408,1.000000 1517.000000,1.000000 
	C1517.000000,166.023239 1517.000000,331.046600 1516.531616,496.534973 
	C1511.396851,496.999847 1506.724976,496.855103 1502.065552,497.034241 
	C1495.452271,497.288452 1490.678467,494.015076 1488.062012,488.535553 
	C1485.918579,484.046417 1484.141235,478.820129 1484.185669,473.938660 
	C1484.501587,439.199310 1485.183472,404.460907 1486.056641,369.729980 
	C1486.451172,354.035950 1487.548706,338.359589 1488.341187,322.394684 
	C1469.218628,322.394684 1449.846069,322.394684 1430.272461,322.394684 
	C1429.685425,331.740204 1429.122070,340.710876 1428.511230,350.436859 
	C1427.004150,349.119324 1426.139038,348.416229 1425.333740,347.650421 
	C1419.479248,342.083344 1414.217529,335.678131 1407.682129,331.082489 
	C1387.895630,317.168457 1365.053467,315.462280 1341.966064,317.393555 
	C1332.425903,318.191559 1322.796753,320.921600 1313.779907,324.299469 
	C1298.922363,329.865387 1286.628052,339.422638 1276.015625,351.357178 
	C1258.155273,371.442902 1249.193848,395.262817 1247.291626,421.523041 
	C1246.317627,434.970245 1247.577148,448.718964 1249.140015,462.178986 
	C1251.793213,485.030701 1262.253296,504.689636 1277.349854,521.666931 
	C1292.531128,538.739685 1311.688477,549.279358 1334.365723,553.146667 
	C1334.997559,553.254395 1335.459106,554.359802 1336.000000,555.000000 
	C1197.976685,555.000000 1059.953369,555.000000 921.415894,554.603149 
	C921.244202,553.872620 921.549866,553.299316 921.934631,553.240234 
	C933.502441,551.461975 944.276001,547.411194 954.477722,541.794678 
	C971.767944,532.275696 985.035522,518.639832 994.194153,501.273071 
	C1002.761841,485.026825 1005.695251,467.177979 1005.873962,449.092255 
	C1006.274109,408.598022 1006.003113,368.097076 1005.986511,327.598877 
	C1005.985779,325.843292 1005.795471,324.087769 1005.699341,322.432953 
	C984.196838,322.432953 963.300171,322.432953 942.000000,322.432953 
	C942.000000,325.007965 942.000000,327.152313 942.000000,329.296692 
	C942.000000,372.128143 942.001160,414.959564 941.995605,457.791016 
	C941.995422,459.456482 942.177063,461.170135 941.860840,462.780212 
	C936.739136,488.859406 913.385681,501.527954 889.838196,495.664703 
	C875.216064,492.023773 864.294312,483.117645 860.498901,467.740234 
	C859.008606,461.702087 858.138794,455.352142 858.106628,449.138428 
	C857.898499,408.974609 858.000061,368.809204 858.000000,328.644318 
	C858.000000,326.560638 857.999939,324.476959 857.999939,322.416870 
	C836.562683,322.416870 815.999573,322.416870 795.000000,322.416870 
	C795.000000,324.970978 795.000000,327.111115 795.000000,329.251282 
	C795.000000,368.249542 794.886169,407.248444 795.091797,446.245605 
	C795.135254,454.481567 795.944153,462.768707 797.101624,470.932861 
	C800.141968,492.378540 809.263550,511.062103 824.801636,526.140625 
	C839.733398,540.630676 857.688232,549.688660 878.369202,553.078064 
	C879.325439,553.234741 880.126587,554.337708 881.000000,555.000000 
	C811.309998,555.000000 741.620056,555.000000 671.415894,554.603149 
	C674.621643,553.135986 678.330688,552.026001 682.063354,551.002136 
	C700.722778,545.884033 716.859314,536.819946 727.921021,520.473389 
	C736.507751,507.784302 738.416138,493.419495 738.149170,478.303772 
	C737.805176,458.824371 729.268921,444.113831 713.937805,433.055054 
	C700.222595,423.161896 684.766479,416.482880 669.271851,409.877686 
	C657.632080,404.915710 645.927307,399.905853 634.916626,393.731079 
	C625.935791,388.694611 627.257446,376.381653 636.611572,371.777557 
	C650.607422,364.888733 664.549622,367.992523 677.724792,373.634460 
	C686.978149,377.596924 695.277466,383.787445 704.376709,389.205627 
	C709.273621,383.325500 714.570129,377.009094 719.817566,370.652161 
	C725.070618,364.288330 730.274475,357.883942 736.155762,350.695770 
	C729.993164,345.255402 724.271729,339.022461 717.451904,334.415497 
	C700.110962,322.701233 680.495300,317.010712 659.720154,316.124420 
	C641.774353,315.358826 624.054565,317.157227 607.450745,324.997375 
	C592.843079,331.894897 581.068176,341.505646 574.463501,356.850525 
	C568.615967,370.436157 567.471252,384.477600 570.332092,398.613251 
	C571.766724,405.702179 574.682007,413.012207 578.780701,418.941254 
	C589.990051,435.156372 607.023071,444.003601 624.425659,451.937866 
	C639.738525,458.919403 655.334961,465.283447 670.596985,472.370697 
	C680.363403,476.905914 681.071716,490.919373 672.148987,496.919952 
	C665.954346,501.085907 658.892883,502.757874 651.568665,502.948914 
	C635.700256,503.362701 621.265991,498.459045 608.294617,489.660797 
	C600.600769,484.442261 593.585815,478.222778 586.058228,472.289886 
	C584.265259,474.486969 582.616882,476.534454 580.939453,478.557892 
	C572.827087,488.343689 564.634399,498.064972 556.696411,507.990021 
	C555.857605,509.038788 556.049500,511.430511 556.574280,512.911926 
	C557.149963,514.537048 558.577515,515.908081 559.784668,517.254639 
	C577.543274,537.064087 599.372498,549.363647 625.868835,553.103333 
	C626.652832,553.213928 627.292847,554.344849 628.000000,555.000000 
	C563.976685,555.000000 499.953339,555.000000 435.424438,554.595215 
	C437.869659,553.455750 440.799103,552.617920 443.774658,552.003052 
	C463.913818,547.841431 481.377045,538.678833 493.322754,521.774170 
	C504.595093,505.822235 507.193268,487.435425 503.608826,468.239471 
	C501.105103,454.831421 494.226318,444.265015 483.573425,435.732544 
	C467.043121,422.492615 447.481262,415.278229 428.435242,406.963074 
	C419.684509,403.142700 410.986176,399.189911 402.379181,395.057404 
	C397.427826,392.680145 395.232483,387.926880 395.241089,382.894257 
	C395.249542,377.956451 397.832153,373.109985 402.621094,371.474915 
	C408.300598,369.535797 414.561615,367.922760 420.452515,368.256073 
	C434.268707,369.037781 447.391205,372.850739 458.722870,381.371033 
	C462.512024,384.220123 466.298035,387.073395 470.225372,390.030090 
	C480.949677,376.949341 491.499329,364.081665 502.303131,350.903961 
	C490.383881,338.485565 477.200470,328.467896 461.080933,322.998291 
	C443.534363,317.044495 425.568634,314.652374 406.929901,316.816986 
	C393.991516,318.319519 381.591278,320.967316 369.981720,326.993073 
	C341.210693,341.926147 331.229767,369.555817 336.803162,399.053345 
	C340.433716,418.268219 352.487213,430.994141 368.518494,439.906403 
	C383.483368,448.225800 399.440125,454.760712 414.958344,462.085205 
	C422.707703,465.742859 430.771942,468.869995 438.116180,473.213623 
	C446.648224,478.259796 447.274750,488.197815 440.301514,495.198425 
	C434.961182,500.559631 428.063568,502.549408 420.935028,502.878235 
	C404.639130,503.630005 389.385864,499.603394 375.882690,490.356323 
	C367.883026,484.878082 360.465851,478.549255 352.353363,472.267273 
	C351.235168,473.632355 349.825562,475.380341 348.387421,477.104492 
	C339.925201,487.250153 331.368652,497.320038 323.108887,507.627838 
	C322.155243,508.817993 321.992767,512.106995 322.902710,513.088013 
	C328.853760,519.504089 334.761475,526.089905 341.509186,531.611023 
	C356.411621,543.804382 373.821289,550.513184 392.868469,553.104553 
	C393.650452,553.210938 394.292664,554.344849 395.000000,555.000000 
M658.082825,85.966522 
	C657.333435,85.654716 656.604736,85.273872 655.831543,85.041138 
	C631.864075,77.826370 607.914124,70.550919 583.888245,63.535576 
	C581.385071,62.804657 578.292786,63.125645 575.705627,63.820957 
	C566.285034,66.352760 556.945190,69.192703 547.607483,72.023788 
	C531.777649,76.823227 515.972473,81.704193 500.252441,86.521622 
	C500.252441,127.002197 500.252441,167.267303 500.252441,207.999985 
	C553.282043,207.999985 606.060608,207.999985 658.950378,208.899551 
	C659.064026,211.482742 659.177673,214.065948 659.288208,216.578552 
	C672.790161,216.578552 685.683167,216.578552 699.897278,216.578552 
	C699.897278,195.749008 699.959045,175.327332 699.853027,154.906540 
	C699.827148,149.916687 700.975403,148.172607 705.910095,148.044434 
	C711.737427,147.893066 717.571594,147.979126 723.402588,148.007919 
	C729.345276,148.037262 730.986206,149.702591 730.992493,155.770218 
	C731.011658,174.096680 730.999817,192.423187 731.000122,210.749664 
	C731.000183,212.683456 731.000122,214.617249 731.000122,216.632248 
	C734.003967,216.632248 736.238220,216.632248 739.000000,216.632248 
	C739.000000,214.318130 739.000000,212.356247 739.000000,210.394348 
	C739.000000,192.900894 738.995667,175.407425 739.001770,157.913971 
	C739.004761,149.295624 740.264160,148.004227 748.609802,148.000443 
	C753.441345,147.998260 758.272949,147.983856 763.104431,148.004684 
	C769.466614,148.032120 770.988403,149.551758 770.993958,155.971817 
	C771.009949,174.298279 770.999939,192.624786 771.000183,210.951263 
	C771.000244,212.860657 771.000244,214.770035 771.000244,216.556137 
	C774.150024,216.556137 776.379639,216.556137 779.000000,216.556137 
	C779.000000,213.648056 778.999878,211.170685 779.000000,208.693314 
	C779.001160,191.033249 778.964478,173.373062 779.024841,155.713196 
	C779.044678,149.900238 781.038147,148.030273 786.812195,148.005127 
	C791.810242,147.983368 796.808533,147.989182 801.806580,148.003098 
	C809.171326,148.023590 810.987427,149.782242 810.994141,156.999756 
	C811.010864,174.993011 810.992004,192.986313 811.012268,210.979553 
	C811.014465,212.893509 811.180969,214.807266 811.263855,216.562683 
	C824.531494,216.562683 837.100830,216.562683 850.002686,216.562683 
	C850.002686,213.472473 850.002686,210.818008 850.931091,208.027206 
	C901.543640,208.018127 952.156433,207.932465 1002.768250,208.116180 
	C1007.938354,208.134964 1009.140259,206.573868 1009.109802,201.611282 
	C1008.900757,167.482346 1009.000000,133.351517 1009.000000,99.221298 
	C1009.000000,86.830498 1009.041992,86.692619 997.345581,83.130348 
	C977.448975,77.070557 957.519653,71.113235 937.540588,65.332214 
	C933.556030,64.179260 928.888611,62.587055 925.213074,63.615955 
	C900.042603,70.662033 875.052673,78.352882 850.001221,84.930794 
	C850.000366,82.434265 849.820801,79.921730 850.042542,77.445129 
	C850.338135,74.143105 849.261414,72.447861 845.876038,71.342880 
	C817.987793,62.239956 790.149597,52.981564 762.347534,43.618092 
	C756.833069,41.760872 751.819336,41.746437 746.179138,43.731827 
	C727.682495,50.242844 708.988464,56.195023 690.353943,62.312012 
	C679.928833,65.734138 669.471375,69.057495 658.839111,72.486458 
	C658.839111,77.365242 658.839111,81.682602 658.082825,85.966522 
M1123.469849,550.000000 
	C1124.802856,550.000000 1126.135864,550.000305 1127.468872,550.000000 
	C1135.998657,549.998108 1135.999512,549.998047 1135.999634,541.243103 
	C1136.000122,505.413300 1135.967651,469.583466 1136.044067,433.753815 
	C1136.052734,429.639343 1136.406128,425.484650 1137.048218,421.419434 
	C1140.365112,400.424652 1154.780640,384.547577 1175.833374,380.100159 
	C1185.612427,378.034302 1195.811035,377.932678 1205.827515,377.029572 
	C1208.062866,376.828033 1210.331909,376.999969 1212.648804,376.999969 
	C1212.648804,357.894897 1212.648804,339.641083 1212.648804,321.190063 
	C1181.178955,314.969299 1153.759277,321.350159 1130.767578,346.691162 
	C1130.767578,337.377594 1130.767578,329.948425 1130.767578,322.348389 
	C1111.367188,322.348389 1092.472290,322.348389 1073.322510,322.348389 
	C1073.322510,398.254395 1073.322510,473.811859 1073.322510,550.000000 
	C1089.918091,550.000000 1106.198975,550.000000 1123.469849,550.000000 
z"/>
<path fill="#003595" opacity="1.000000" stroke="none" 
	d="
M0.999998,413.468658 
	C1.663635,412.086731 2.739835,411.251678 2.930062,410.248627 
	C6.827858,389.695282 14.145127,370.819458 27.812244,354.500732 
	C40.918499,338.851654 56.633804,327.441315 76.167397,321.423950 
	C94.075699,315.907257 112.193542,315.882477 130.616348,318.642731 
	C146.922043,321.085815 160.643585,328.256134 172.568726,339.205597 
	C176.060532,342.411713 178.888336,346.340912 182.474930,350.460754 
	C183.006989,344.998840 183.554672,339.919037 183.971252,334.828491 
	C184.133713,332.843079 183.966507,330.832855 184.009338,328.835205 
	C184.143539,322.574524 184.705551,322.006805 190.817230,322.003235 
	C206.305847,321.994232 221.794479,322.000336 237.283096,322.000336 
	C238.921143,322.000336 240.559204,322.000336 241.976105,322.000336 
	C241.976105,328.811676 242.226654,335.179688 241.912033,341.519684 
	C241.527695,349.264801 240.470169,356.975983 240.064636,364.720703 
	C239.527008,374.988068 239.200806,385.271393 239.027420,395.551941 
	C238.609695,420.317657 238.042847,445.087708 238.204407,469.851624 
	C238.244980,476.071075 240.144043,482.525421 242.382538,488.418427 
	C244.951859,495.182343 253.185272,498.475922 260.428070,497.397339 
	C263.965759,496.870483 267.646820,497.306183 272.000000,497.306183 
	C272.000000,500.436676 272.000031,503.374573 272.000000,506.312469 
	C271.999847,518.803284 271.787292,531.299683 272.114441,543.781921 
	C272.229279,548.164307 270.713226,550.129456 266.599548,550.700439 
	C261.548828,551.401489 256.511871,552.209290 251.483688,553.058167 
	C250.601013,553.207275 249.790817,553.785583 248.973572,554.582825 
	C242.312363,555.000000 235.624710,555.000000 228.509094,554.595215 
	C227.079559,553.794983 226.107910,553.177429 225.071854,553.037903 
	C212.644974,551.363770 201.257996,547.296326 193.053314,537.363586 
	C188.911469,532.349426 185.820709,526.467041 182.314056,521.068604 
	C167.928253,539.841125 149.700043,550.876526 129.620880,553.153198 
	C129.018539,553.221497 128.537567,554.360352 128.000000,555.000000 
	C115.645775,555.000000 103.291542,555.000000 90.517853,554.603149 
	C89.430809,553.817261 88.804535,553.202942 88.089668,553.072021 
	C67.401054,549.279907 49.415279,540.121887 34.732784,525.113892 
	C17.291729,507.286163 6.907410,485.759674 2.938103,461.121613 
	C2.758362,460.005920 1.666846,459.037170 1.000004,458.000000 
	C1.000000,443.312439 1.000000,428.624878 0.999998,413.468658 
M72.942657,469.413025 
	C76.132393,473.612823 78.927834,478.197845 82.584908,481.941071 
	C94.121773,493.749878 108.442436,498.342957 124.760681,496.994385 
	C143.885544,495.413879 158.674286,486.614746 167.986252,469.743439 
	C175.751114,455.675140 177.171417,440.475586 175.126404,424.588074 
	C172.215714,401.975067 161.261612,385.592133 139.698288,377.464447 
	C118.087570,369.318970 96.375496,374.267548 80.630684,391.049225 
	C70.036957,402.340576 65.830490,416.629700 65.082138,431.816956 
	C64.447838,444.689606 66.960617,457.105896 72.942657,469.413025 
z"/>
<path fill="#003595" opacity="1.000000" stroke="none" 
	d="
M1336.468628,555.000000 
	C1335.459106,554.359802 1334.997559,553.254395 1334.365723,553.146667 
	C1311.688477,549.279358 1292.531128,538.739685 1277.349854,521.666931 
	C1262.253296,504.689636 1251.793213,485.030701 1249.140015,462.178986 
	C1247.577148,448.718964 1246.317627,434.970245 1247.291626,421.523041 
	C1249.193848,395.262817 1258.155273,371.442902 1276.015625,351.357178 
	C1286.628052,339.422638 1298.922363,329.865387 1313.779907,324.299469 
	C1322.796753,320.921600 1332.425903,318.191559 1341.966064,317.393555 
	C1365.053467,315.462280 1387.895630,317.168457 1407.682129,331.082489 
	C1414.217529,335.678131 1419.479248,342.083344 1425.333740,347.650421 
	C1426.139038,348.416229 1427.004150,349.119324 1428.511230,350.436859 
	C1429.122070,340.710876 1429.685425,331.740204 1430.272461,322.394684 
	C1449.846069,322.394684 1469.218628,322.394684 1488.341187,322.394684 
	C1487.548706,338.359589 1486.451172,354.035950 1486.056641,369.729980 
	C1485.183472,404.460907 1484.501587,439.199310 1484.185669,473.938660 
	C1484.141235,478.820129 1485.918579,484.046417 1488.062012,488.535553 
	C1490.678467,494.015076 1495.452271,497.288452 1502.065552,497.034241 
	C1506.724976,496.855103 1511.396851,496.999847 1516.531616,497.000000 
	C1517.000000,514.354248 1517.000000,531.708435 1516.595215,549.539246 
	C1510.313721,551.017822 1504.424194,551.953674 1498.573120,553.088623 
	C1497.627441,553.272095 1496.853394,554.340576 1496.000000,555.000000 
	C1488.979004,555.000000 1481.958130,555.000000 1474.503418,554.590088 
	C1472.896240,553.787415 1471.748901,553.185120 1470.545410,553.035583 
	C1462.270996,552.007568 1454.422241,549.777100 1447.492065,544.973083 
	C1438.754150,538.915955 1432.545776,530.808167 1428.502441,520.642334 
	C1426.029907,523.599976 1423.923340,526.361877 1421.569702,528.894043 
	C1409.466553,541.914612 1394.454834,549.599548 1377.116089,553.032043 
	C1375.991577,553.254639 1375.034790,554.324402 1374.000000,555.000000 
	C1361.645752,555.000000 1349.291504,555.000000 1336.468628,555.000000 
M1408.024902,393.532166 
	C1401.828857,388.626801 1396.291016,382.303345 1389.319824,379.068390 
	C1363.064941,366.884918 1332.372437,375.791260 1318.305908,402.567596 
	C1309.206421,419.888641 1308.692139,438.337860 1313.886353,457.039398 
	C1321.767822,485.415863 1347.972290,502.541779 1378.013794,495.926239 
	C1397.098999,491.723389 1410.528076,480.563751 1417.153442,461.786102 
	C1420.875854,451.236115 1421.949951,440.544922 1421.207520,429.309204 
	C1420.337769,416.146973 1416.227783,404.549744 1408.024902,393.532166 
z"/>
<path fill="#003595" opacity="1.000000" stroke="none" 
	d="
M881.468628,555.000000 
	C880.126587,554.337708 879.325439,553.234741 878.369202,553.078064 
	C857.688232,549.688660 839.733398,540.630676 824.801636,526.140625 
	C809.263550,511.062103 800.141968,492.378540 797.101624,470.932861 
	C795.944153,462.768707 795.135254,454.481567 795.091797,446.245605 
	C794.886169,407.248444 795.000000,368.249542 795.000000,329.251282 
	C795.000000,327.111115 795.000000,324.970978 795.000000,322.416870 
	C815.999573,322.416870 836.562683,322.416870 857.999939,322.416870 
	C857.999939,324.476959 858.000000,326.560638 858.000000,328.644318 
	C858.000061,368.809204 857.898499,408.974609 858.106628,449.138428 
	C858.138794,455.352142 859.008606,461.702087 860.498901,467.740234 
	C864.294312,483.117645 875.216064,492.023773 889.838196,495.664703 
	C913.385681,501.527954 936.739136,488.859406 941.860840,462.780212 
	C942.177063,461.170135 941.995422,459.456482 941.995605,457.791016 
	C942.001160,414.959564 942.000000,372.128143 942.000000,329.296692 
	C942.000000,327.152313 942.000000,325.007965 942.000000,322.432953 
	C963.300171,322.432953 984.196838,322.432953 1005.699341,322.432953 
	C1005.795471,324.087769 1005.985779,325.843292 1005.986511,327.598877 
	C1006.003113,368.097076 1006.274109,408.598022 1005.873962,449.092255 
	C1005.695251,467.177979 1002.761841,485.026825 994.194153,501.273071 
	C985.035522,518.639832 971.767944,532.275696 954.477722,541.794678 
	C944.276001,547.411194 933.502441,551.461975 921.934631,553.240234 
	C921.549866,553.299316 921.244202,553.872620 920.950806,554.603149 
	C907.979126,555.000000 894.958191,555.000000 881.468628,555.000000 
z"/>
<path fill="#003595" opacity="1.000000" stroke="none" 
	d="
M628.468628,555.000000 
	C627.292847,554.344849 626.652832,553.213928 625.868835,553.103333 
	C599.372498,549.363647 577.543274,537.064087 559.784668,517.254639 
	C558.577515,515.908081 557.149963,514.537048 556.574280,512.911926 
	C556.049500,511.430511 555.857605,509.038788 556.696411,507.990021 
	C564.634399,498.064972 572.827087,488.343689 580.939453,478.557892 
	C582.616882,476.534454 584.265259,474.486969 586.058228,472.289886 
	C593.585815,478.222778 600.600769,484.442261 608.294617,489.660797 
	C621.265991,498.459045 635.700256,503.362701 651.568665,502.948914 
	C658.892883,502.757874 665.954346,501.085907 672.148987,496.919952 
	C681.071716,490.919373 680.363403,476.905914 670.596985,472.370697 
	C655.334961,465.283447 639.738525,458.919403 624.425659,451.937866 
	C607.023071,444.003601 589.990051,435.156372 578.780701,418.941254 
	C574.682007,413.012207 571.766724,405.702179 570.332092,398.613251 
	C567.471252,384.477600 568.615967,370.436157 574.463501,356.850525 
	C581.068176,341.505646 592.843079,331.894897 607.450745,324.997375 
	C624.054565,317.157227 641.774353,315.358826 659.720154,316.124420 
	C680.495300,317.010712 700.110962,322.701233 717.451904,334.415497 
	C724.271729,339.022461 729.993164,345.255402 736.155762,350.695770 
	C730.274475,357.883942 725.070618,364.288330 719.817566,370.652161 
	C714.570129,377.009094 709.273621,383.325500 704.376709,389.205627 
	C695.277466,383.787445 686.978149,377.596924 677.724792,373.634460 
	C664.549622,367.992523 650.607422,364.888733 636.611572,371.777557 
	C627.257446,376.381653 625.935791,388.694611 634.916626,393.731079 
	C645.927307,399.905853 657.632080,404.915710 669.271851,409.877686 
	C684.766479,416.482880 700.222595,423.161896 713.937805,433.055054 
	C729.268921,444.113831 737.805176,458.824371 738.149170,478.303772 
	C738.416138,493.419495 736.507751,507.784302 727.921021,520.473389 
	C716.859314,536.819946 700.722778,545.884033 682.063354,551.002136 
	C678.330688,552.026001 674.621643,553.135986 670.950806,554.603149 
	C656.979126,555.000000 642.958191,555.000000 628.468628,555.000000 
z"/>
<path fill="#003595" opacity="1.000000" stroke="none" 
	d="
M395.468658,555.000000 
	C394.292664,554.344849 393.650452,553.210938 392.868469,553.104553 
	C373.821289,550.513184 356.411621,543.804382 341.509186,531.611023 
	C334.761475,526.089905 328.853760,519.504089 322.902710,513.088013 
	C321.992767,512.106995 322.155243,508.817993 323.108887,507.627838 
	C331.368652,497.320038 339.925201,487.250153 348.387421,477.104492 
	C349.825562,475.380341 351.235168,473.632355 352.353363,472.267273 
	C360.465851,478.549255 367.883026,484.878082 375.882690,490.356323 
	C389.385864,499.603394 404.639130,503.630005 420.935028,502.878235 
	C428.063568,502.549408 434.961182,500.559631 440.301514,495.198425 
	C447.274750,488.197815 446.648224,478.259796 438.116180,473.213623 
	C430.771942,468.869995 422.707703,465.742859 414.958344,462.085205 
	C399.440125,454.760712 383.483368,448.225800 368.518494,439.906403 
	C352.487213,430.994141 340.433716,418.268219 336.803162,399.053345 
	C331.229767,369.555817 341.210693,341.926147 369.981720,326.993073 
	C381.591278,320.967316 393.991516,318.319519 406.929901,316.816986 
	C425.568634,314.652374 443.534363,317.044495 461.080933,322.998291 
	C477.200470,328.467896 490.383881,338.485565 502.303131,350.903961 
	C491.499329,364.081665 480.949677,376.949341 470.225372,390.030090 
	C466.298035,387.073395 462.512024,384.220123 458.722870,381.371033 
	C447.391205,372.850739 434.268707,369.037781 420.452515,368.256073 
	C414.561615,367.922760 408.300598,369.535797 402.621094,371.474915 
	C397.832153,373.109985 395.249542,377.956451 395.241089,382.894257 
	C395.232483,387.926880 397.427826,392.680145 402.379181,395.057404 
	C410.986176,399.189911 419.684509,403.142700 428.435242,406.963074 
	C447.481262,415.278229 467.043121,422.492615 483.573425,435.732544 
	C494.226318,444.265015 501.105103,454.831421 503.608826,468.239471 
	C507.193268,487.435425 504.595093,505.822235 493.322754,521.774170 
	C481.377045,538.678833 463.913818,547.841431 443.774658,552.003052 
	C440.799103,552.617920 437.869659,553.455750 434.959442,554.595215 
	C421.979095,555.000000 408.958221,555.000000 395.468658,555.000000 
z"/>
<path fill="#003595" opacity="1.000000" stroke="none" 
	d="
M759.541931,1.000007 
	C761.133240,1.898964 762.130554,3.192198 763.420349,3.636958 
	C779.474365,9.172582 795.576233,14.569138 811.655273,20.032389 
	C843.029846,30.692690 874.398926,41.369049 905.762451,52.061840 
	C906.678894,52.374287 907.507141,52.945393 909.354187,53.902489 
	C901.768311,56.402683 895.011353,58.673382 888.224182,60.850281 
	C884.147400,62.157856 880.072998,63.549431 875.899170,64.444649 
	C873.942383,64.864342 871.624695,64.595505 869.688538,63.967152 
	C844.763916,55.878120 819.887146,47.641376 794.979553,39.499443 
	C782.914185,35.555458 770.853638,31.582994 758.687927,27.970438 
	C756.040588,27.184328 752.710144,27.147409 750.104858,28.007994 
	C720.354919,37.834946 690.686523,47.908333 660.991638,57.902092 
	C654.134644,60.209789 647.280396,62.530460 640.376038,64.688683 
	C639.008911,65.116013 637.306396,65.206039 635.947327,64.807648 
	C624.734619,61.520565 613.566406,58.081615 601.457031,54.407185 
	C603.126953,53.337784 604.037476,52.480778 605.115784,52.104511 
	C627.680847,44.230541 650.255432,36.383732 672.847656,28.587990 
	C697.615723,20.041464 722.405029,11.556540 747.174622,3.014678 
	C747.892090,2.767275 748.492432,2.180139 749.073669,1.375703 
	C752.361267,1.000000 755.722595,1.000000 759.541931,1.000007 
z"/>
<path fill="#000000" opacity="1.000000" stroke="none" 
	d="
M1.000004,458.468658 
	C1.666846,459.037170 2.758362,460.005920 2.938103,461.121613 
	C6.907410,485.759674 17.291729,507.286163 34.732784,525.113892 
	C49.415279,540.121887 67.401054,549.279907 88.089668,553.072021 
	C88.804535,553.202942 89.430809,553.817261 90.049194,554.603149 
	C60.403271,555.000000 30.806541,555.000000 1.000000,555.000000 
	C1.000000,522.979431 1.000000,490.958374 1.000004,458.468658 
z"/>
<path fill="#000000" opacity="1.000000" stroke="none" 
	d="
M128.468658,555.000000 
	C128.537567,554.360352 129.018539,553.221497 129.620880,553.153198 
	C149.700043,550.876526 167.928253,539.841125 182.314056,521.068604 
	C185.820709,526.467041 188.911469,532.349426 193.053314,537.363586 
	C201.257996,547.296326 212.644974,551.363770 225.071854,553.037903 
	C226.107910,553.177429 227.079559,553.794983 228.040558,554.595215 
	C194.979111,555.000000 161.958206,555.000000 128.468658,555.000000 
z"/>
<path fill="#000000" opacity="1.000000" stroke="none" 
	d="
M1374.468628,555.000000 
	C1375.034790,554.324402 1375.991577,553.254639 1377.116089,553.032043 
	C1394.454834,549.599548 1409.466553,541.914612 1421.569702,528.894043 
	C1423.923340,526.361877 1426.029907,523.599976 1428.502441,520.642334 
	C1432.545776,530.808167 1438.754150,538.915955 1447.492065,544.973083 
	C1454.422241,549.777100 1462.270996,552.007568 1470.545410,553.035583 
	C1471.748901,553.185120 1472.896240,553.787415 1474.034790,554.590088 
	C1440.979126,555.000000 1407.958130,555.000000 1374.468628,555.000000 
z"/>
<path fill="#000000" opacity="1.000000" stroke="none" 
	d="
M1496.468872,555.000000 
	C1496.853394,554.340576 1497.627441,553.272095 1498.573120,553.088623 
	C1504.424194,551.953674 1510.313721,551.017822 1516.595215,550.007935 
	C1517.000000,551.638062 1517.000000,553.276123 1517.000000,555.000000 
	C1510.312744,555.000000 1503.625244,555.000000 1496.468872,555.000000 
z"/>
<path fill="#003595" opacity="1.000000" stroke="none" 
	d="
M850.002686,208.163544 
	C850.002686,210.818008 850.002686,213.472473 850.002686,216.562683 
	C837.100830,216.562683 824.531494,216.562683 811.263855,216.562683 
	C811.180969,214.807266 811.014465,212.893509 811.012268,210.979553 
	C810.992004,192.986313 811.010864,174.993011 810.994141,156.999756 
	C810.987427,149.782242 809.171326,148.023590 801.806580,148.003098 
	C796.808533,147.989182 791.810242,147.983368 786.812195,148.005127 
	C781.038147,148.030273 779.044678,149.900238 779.024841,155.713196 
	C778.964478,173.373062 779.001160,191.033249 779.000000,208.693314 
	C778.999878,211.170685 779.000000,213.648056 779.000000,216.556137 
	C776.379639,216.556137 774.150024,216.556137 771.000244,216.556137 
	C771.000244,214.770035 771.000244,212.860657 771.000183,210.951263 
	C770.999939,192.624786 771.009949,174.298279 770.993958,155.971817 
	C770.988403,149.551758 769.466614,148.032120 763.104431,148.004684 
	C758.272949,147.983856 753.441345,147.998260 748.609802,148.000443 
	C740.264160,148.004227 739.004761,149.295624 739.001770,157.913971 
	C738.995667,175.407425 739.000000,192.900894 739.000000,210.394348 
	C739.000000,212.356247 739.000000,214.318130 739.000000,216.632248 
	C736.238220,216.632248 734.003967,216.632248 731.000122,216.632248 
	C731.000122,214.617249 731.000183,212.683456 731.000122,210.749664 
	C730.999817,192.423187 731.011658,174.096680 730.992493,155.770218 
	C730.986206,149.702591 729.345276,148.037262 723.402588,148.007919 
	C717.571594,147.979126 711.737427,147.893066 705.910095,148.044434 
	C700.975403,148.172607 699.827148,149.916687 699.853027,154.906540 
	C699.959045,175.327332 699.897278,195.749008 699.897278,216.578552 
	C685.683167,216.578552 672.790161,216.578552 659.288208,216.578552 
	C659.177673,214.065948 659.064026,211.482742 658.951416,207.983887 
	C658.914673,166.712143 658.876892,126.356056 658.839111,85.999969 
	C658.839111,81.682602 658.839111,77.365242 658.839111,72.486458 
	C669.471375,69.057495 679.928833,65.734138 690.353943,62.312012 
	C708.988464,56.195023 727.682495,50.242844 746.179138,43.731827 
	C751.819336,41.746437 756.833069,41.760872 762.347534,43.618092 
	C790.149597,52.981564 817.987793,62.239956 845.876038,71.342880 
	C849.261414,72.447861 850.338135,74.143105 850.042542,77.445129 
	C849.820801,79.921730 850.000366,82.434265 849.681091,85.677277 
	C849.259155,86.909233 849.067932,87.394753 849.068237,87.880165 
	C849.091736,127.595528 849.130066,167.310883 849.176514,207.239365 
	C849.326782,207.760071 849.562134,207.875687 849.935669,207.885437 
	C849.979553,207.971573 850.002686,208.163544 850.002686,208.163544 
z"/>
<path fill="#003595" opacity="1.000000" stroke="none" 
	d="
M1122.974854,550.000000 
	C1106.198975,550.000000 1089.918091,550.000000 1073.322510,550.000000 
	C1073.322510,473.811859 1073.322510,398.254395 1073.322510,322.348389 
	C1092.472290,322.348389 1111.367188,322.348389 1130.767578,322.348389 
	C1130.767578,329.948425 1130.767578,337.377594 1130.767578,346.691162 
	C1153.759277,321.350159 1181.178955,314.969299 1212.648804,321.190063 
	C1212.648804,339.641083 1212.648804,357.894897 1212.648804,376.999969 
	C1210.331909,376.999969 1208.062866,376.828033 1205.827515,377.029572 
	C1195.811035,377.932678 1185.612427,378.034302 1175.833374,380.100159 
	C1154.780640,384.547577 1140.365112,400.424652 1137.048218,421.419434 
	C1136.406128,425.484650 1136.052734,429.639343 1136.044067,433.753815 
	C1135.967651,469.583466 1136.000122,505.413300 1135.999634,541.243103 
	C1135.999512,549.998047 1135.998657,549.998108 1127.468872,550.000000 
	C1126.135864,550.000305 1124.802856,550.000000 1122.974854,550.000000 
z"/>
<path fill="#9074B1" opacity="1.000000" stroke="none" 
	d="
M849.167358,207.026245 
	C849.130066,167.310883 849.091736,127.595528 849.068237,87.880165 
	C849.067932,87.394753 849.259155,86.909233 849.682739,86.129860 
	C875.052673,78.352882 900.042603,70.662033 925.213074,63.615955 
	C928.888611,62.587055 933.556030,64.179260 937.540588,65.332214 
	C957.519653,71.113235 977.448975,77.070557 997.345581,83.130348 
	C1009.041992,86.692619 1009.000000,86.830498 1009.000000,99.221298 
	C1009.000000,133.351517 1008.900757,167.482346 1009.109802,201.611282 
	C1009.140259,206.573868 1007.938354,208.134964 1002.768250,208.116180 
	C952.156433,207.932465 901.543640,208.018127 850.466919,208.095367 
	C850.002686,208.163544 849.979553,207.971573 849.828186,207.745514 
	C849.520325,207.341354 849.350464,207.176941 849.167358,207.026245 
M948.476562,106.000023 
	C946.643433,106.003090 944.794495,105.851768 942.979919,106.036720 
	C936.206665,106.727112 934.041565,108.436501 934.022217,113.297997 
	C933.963257,128.129684 933.957886,142.961975 934.024902,157.793594 
	C934.047485,162.793549 936.263184,164.891907 941.333130,164.984543 
	C945.331482,165.057587 949.332581,165.039719 953.331604,164.989868 
	C958.948242,164.919876 960.974060,162.872894 960.988037,157.129150 
	C961.023315,142.630615 961.023315,128.131866 960.986084,113.633339 
	C960.973816,108.857353 958.733643,106.486282 953.904846,106.028297 
	C952.418152,105.887291 950.907227,106.002258 948.476562,106.000023 
M906.619324,164.999985 
	C909.615234,164.998337 912.635315,165.234604 915.600647,164.932816 
	C919.045288,164.582230 922.022095,163.391602 922.012390,159.015518 
	C921.977844,143.370392 922.076599,127.724129 921.874573,112.081551 
	C921.855042,110.570557 920.334778,108.046677 919.108887,107.768944 
	C914.690918,106.768051 910.109680,106.195305 905.573608,106.072906 
	C897.436951,105.853340 894.900818,108.435860 895.030762,116.581306 
	C895.252869,130.498917 895.951111,144.415695 895.842163,158.328079 
	C895.805115,163.053543 897.932861,164.393494 901.686768,164.946381 
	C902.991028,165.138474 904.345154,164.991882 906.619324,164.999985 
z"/>
<path fill="#9074B1" opacity="1.000000" stroke="none" 
	d="
M658.460938,85.983246 
	C658.876892,126.356056 658.914673,166.712143 658.895874,207.534103 
	C606.060608,207.999985 553.282043,207.999985 500.252441,207.999985 
	C500.252441,167.267303 500.252441,127.002197 500.252441,86.521622 
	C515.972473,81.704193 531.777649,76.823227 547.607483,72.023788 
	C556.945190,69.192703 566.285034,66.352760 575.705627,63.820957 
	C578.292786,63.125645 581.385071,62.804657 583.888245,63.535576 
	C607.914124,70.550919 631.864075,77.826370 655.831543,85.041138 
	C656.604736,85.273872 657.333435,85.654716 658.460938,85.983246 
M547.000000,156.261078 
	C547.016846,163.398834 548.564575,164.974075 555.612549,164.997894 
	C559.103210,165.009674 562.594360,165.028244 566.084717,164.993469 
	C572.006287,164.934464 573.979797,162.944992 573.991211,156.910614 
	C574.018127,142.615204 574.012634,128.319702 573.992432,114.024269 
	C573.985962,109.411430 571.140381,106.249283 566.592834,106.040581 
	C562.777710,105.865486 558.931213,105.777527 555.128662,106.058182 
	C548.259644,106.565170 547.006592,108.065125 547.002441,114.923897 
	C546.994263,128.388214 547.000000,141.852539 547.000000,156.261078 
M586.000000,114.732224 
	C586.000061,129.060318 585.989746,143.388428 586.005737,157.716507 
	C586.011353,162.786163 588.000366,164.857056 593.103699,164.979721 
	C597.099915,165.075806 601.102722,165.087112 605.098206,164.975647 
	C609.815491,164.844009 612.925049,161.934067 612.959351,157.294998 
	C613.064026,143.134277 613.089111,128.971451 612.954346,114.811249 
	C612.898193,108.907524 610.375549,106.377151 604.631836,106.042725 
	C601.145020,105.839699 597.538025,105.482056 594.158447,106.117165 
	C587.106934,107.442345 585.500122,107.352066 586.000000,114.732224 
z"/>
<path fill="#000000" opacity="1.000000" stroke="none" 
	d="
M72.699051,469.128235 
	C66.960617,457.105896 64.447838,444.689606 65.082138,431.816956 
	C65.830490,416.629700 70.036957,402.340576 80.630684,391.049225 
	C96.375496,374.267548 118.087570,369.318970 139.698288,377.464447 
	C161.261612,385.592133 172.215714,401.975067 175.126404,424.588074 
	C177.171417,440.475586 175.751114,455.675140 167.986252,469.743439 
	C158.674286,486.614746 143.885544,495.413879 124.760681,496.994385 
	C108.442436,498.342957 94.121773,493.749878 82.584908,481.941071 
	C78.927834,478.197845 76.132393,473.612823 72.699051,469.128235 
z"/>
<path fill="#000000" opacity="1.000000" stroke="none" 
	d="
M1408.280396,393.784851 
	C1416.227783,404.549744 1420.337769,416.146973 1421.207520,429.309204 
	C1421.949951,440.544922 1420.875854,451.236115 1417.153442,461.786102 
	C1410.528076,480.563751 1397.098999,491.723389 1378.013794,495.926239 
	C1347.972290,502.541779 1321.767822,485.415863 1313.886353,457.039398 
	C1308.692139,438.337860 1309.206421,419.888641 1318.305908,402.567596 
	C1332.372437,375.791260 1363.064941,366.884918 1389.319824,379.068390 
	C1396.291016,382.303345 1401.828857,388.626801 1408.280396,393.784851 
z"/>
<path fill="#8D72B0" opacity="1.000000" stroke="none" 
	d="
M849.176514,207.239365 
	C849.350464,207.176941 849.520325,207.341354 849.784302,207.659378 
	C849.562134,207.875687 849.326782,207.760071 849.176514,207.239365 
z"/>
<path fill="#000000" opacity="1.000000" stroke="none" 
	d="
M948.941956,106.000023 
	C950.907227,106.002258 952.418152,105.887291 953.904846,106.028297 
	C958.733643,106.486282 960.973816,108.857353 960.986084,113.633339 
	C961.023315,128.131866 961.023315,142.630615 960.988037,157.129150 
	C960.974060,162.872894 958.948242,164.919876 953.331604,164.989868 
	C949.332581,165.039719 945.331482,165.057587 941.333130,164.984543 
	C936.263184,164.891907 934.047485,162.793549 934.024902,157.793594 
	C933.957886,142.961975 933.963257,128.129684 934.022217,113.297997 
	C934.041565,108.436501 936.206665,106.727112 942.979919,106.036720 
	C944.794495,105.851768 946.643433,106.003090 948.941956,106.000023 
z"/>
<path fill="#000000" opacity="1.000000" stroke="none" 
	d="
M906.147949,165.000000 
	C904.345154,164.991882 902.991028,165.138474 901.686768,164.946381 
	C897.932861,164.393494 895.805115,163.053543 895.842163,158.328079 
	C895.951111,144.415695 895.252869,130.498917 895.030762,116.581306 
	C894.900818,108.435860 897.436951,105.853340 905.573608,106.072906 
	C910.109680,106.195305 914.690918,106.768051 919.108887,107.768944 
	C920.334778,108.046677 921.855042,110.570557 921.874573,112.081551 
	C922.076599,127.724129 921.977844,143.370392 922.012390,159.015518 
	C922.022095,163.391602 919.045288,164.582230 915.600647,164.932816 
	C912.635315,165.234604 909.615234,164.998337 906.147949,165.000000 
z"/>
<path fill="#000000" opacity="1.000000" stroke="none" 
	d="
M547.000000,155.788971 
	C547.000000,141.852539 546.994263,128.388214 547.002441,114.923897 
	C547.006592,108.065125 548.259644,106.565170 555.128662,106.058182 
	C558.931213,105.777527 562.777710,105.865486 566.592834,106.040581 
	C571.140381,106.249283 573.985962,109.411430 573.992432,114.024269 
	C574.012634,128.319702 574.018127,142.615204 573.991211,156.910614 
	C573.979797,162.944992 572.006287,164.934464 566.084717,164.993469 
	C562.594360,165.028244 559.103210,165.009674 555.612549,164.997894 
	C548.564575,164.974075 547.016846,163.398834 547.000000,155.788971 
z"/>
<path fill="#000000" opacity="1.000000" stroke="none" 
	d="
M586.000000,114.264168 
	C585.500122,107.352066 587.106934,107.442345 594.158447,106.117165 
	C597.538025,105.482056 601.145020,105.839699 604.631836,106.042725 
	C610.375549,106.377151 612.898193,108.907524 612.954346,114.811249 
	C613.089111,128.971451 613.064026,143.134277 612.959351,157.294998 
	C612.925049,161.934067 609.815491,164.844009 605.098206,164.975647 
	C601.102722,165.087112 597.099915,165.075806 593.103699,164.979721 
	C588.000366,164.857056 586.011353,162.786163 586.005737,157.716507 
	C585.989746,143.388428 586.000061,129.060318 586.000000,114.264168 
z"/>
</svg>