<?xml version="1.0" encoding="utf-8"?>
<!-- Generator: Adobe Illustrator 16.0.0, SVG Export Plug-In . SVG Version: 6.00 Build 0)  -->
<!DOCTYPE svg PUBLIC "-//W3C//DTD SVG 1.1//EN" "http://www.w3.org/Graphics/SVG/1.1/DTD/svg11.dtd">
<svg version="1.1" id="Layer_1" xmlns="http://www.w3.org/2000/svg" xmlns:xlink="http://www.w3.org/1999/xlink" x="0px" y="0px"
	 width="612px" height="792px" viewBox="0 0 612 792" enable-background="new 0 0 612 792" xml:space="preserve">
<path fill="#FFFFFF" d="M0.669,445.809c0.667-0.881,1.729-1.327,1.944-2.032c4.323-14.153,13.117-24.539,27.078-29.364
	c11.74-4.057,23.762-3.605,34.813,3.02c3.1,1.859,5.723,4.514,8.979,7.136c1.903-2.961,0.019-6.821,1.007-10.353
	c7.822,0,15.674,0,23.8,0c-0.353,4.94-0.696,9.817-1.054,14.693c-0.04,0.54-0.234,1.072-0.243,1.61
	c-0.235,15.207-0.533,30.413-0.641,45.621c-0.043,6.117,2.938,8.817,9.08,8.817c1.314,0,2.628,0,4.258,0
	c0,6.849,0.154,13.503-0.167,20.135c-0.048,0.993-2.326,1.879-3.374,3.045c-5.835,0.23-11.869,0.23-18.019,0.013
	c-0.428-0.509-0.7-0.985-1.058-1.064c-5.962-1.302-9.818-5.047-12.271-10.453c-0.231-0.509-0.448-1.024-0.496-1.134
	c-0.87,0.217-1.016,0.207-1.07,0.273c-4.693,5.678-10.351,9.88-17.644,11.624c-0.098,0.022-0.055,0.635-0.077,0.972
	c-7.371,0-14.743,0-22.431-0.27c-1.222-0.656-2.111-1.086-3.034-1.421c-15.015-5.445-23.731-16.49-28.076-31.465
	c-0.179-0.616-0.858-1.087-1.305-1.625C0.669,464.432,0.669,455.277,0.669,445.809 M69.333,449.596
	c-3.259-7.61-8.971-12.015-17.069-13.821c-7.478-1.668-17.68,2.735-21.675,9.462c-3.37,5.672-4.257,11.563-3.959,18.111
	c0.527,11.584,10.22,22.622,22.999,21.717c8.582-0.608,14.702-4.414,18.583-11.808C72.114,465.819,71.466,457.958,69.333,449.596z"
	/>
<path fill="#FFFFFF" d="M536.064,508.367c-0.741-0.449-1.095-1.167-1.607-1.308c-6.628-1.822-12.335-5.415-17.041-10.176
	c-6.222-6.295-10.53-13.941-12.399-22.692c-2.63-12.311-2.403-24.636,2.792-36.197c6.002-13.353,16.275-22.242,30.896-25.202
	c8.938-1.81,17.944-1.051,26.146,2.929c4.447,2.158,8.078,5.996,12.1,9.094c0.257-3.123,0.566-6.889,0.878-10.674
	c8.004,0,15.553,0,23.546,0c-0.379,6.309-0.747,12.52-1.133,18.729c-0.04,0.649-0.257,1.29-0.269,1.938
	c-0.237,13.092-0.5,26.183-0.635,39.275c-0.021,2.032,0.167,4.237,0.948,6.067c1.194,2.8,3.023,5.222,6.754,4.836
	c1.654-0.171,3.34-0.029,5.32-0.029c0.31,7.753,0.31,15.506,0.31,23.41c-7.147,0-14.297,0-21.563-0.214
	c-0.536-0.515-0.912-0.956-1.379-1.098c-5.332-1.611-9.31-4.995-11.663-9.898c-1.095-2.281-1.064-1.885-2.479-0.298
	c-4.368,4.906-9.492,8.781-16.125,10.222c-0.397,0.086-0.649,0.842-0.969,1.286C551.12,508.367,543.749,508.367,536.064,508.367
	 M573.246,467.236c0.21-2.83,0.492-5.657,0.615-8.491c0.312-7.185-2.334-13.115-7.666-17.923c-8.79-7.927-23.607-7.132-31.29,2.947
	c-4.274,5.607-5.186,11.69-5.217,18.345c-0.053,11.428,9.535,23.629,22.692,23.051C561.874,484.748,571.76,477.798,573.246,467.236z
	"/>
<path fill="#FFFFFF" d="M351.461,508.367c-0.638-0.444-0.892-1.196-1.297-1.288c-15.072-3.436-27.626-17.127-29.111-33.049
	c-0.265-2.836-0.634-5.678-0.643-8.518c-0.05-16.942-0.008-33.886,0.01-50.827c0-0.093,0.092-0.185,0.235-0.451
	c8.201,0,16.498,0,25.142,0c0,1.078,0,2.152,0,3.227c0,16.608-0.072,33.218,0.033,49.825c0.046,7.246,2.856,13.161,9.787,16.229
	c9.627,4.261,21.992-0.535,23.597-12.1c0.405-2.921,0.652-5.888,0.664-8.834c0.063-16.039,0.03-32.078,0.03-48.319
	c8.419,0,16.717,0,25.264,0c0.048,0.87,0.146,1.828,0.146,2.787c0.009,17.611,0.24,35.228-0.093,52.833
	c-0.166,8.808-3.268,16.833-8.923,23.808c-5.651,6.969-12.7,11.557-21.463,13.516c-0.266,0.06-0.454,0.467-0.48,0.937
	C366.963,508.367,359.369,508.367,351.461,508.367z"/>
<path fill="#FFFFFF" d="M249.126,508.367c-0.749-0.445-1.115-1.168-1.629-1.296c-9.32-2.326-17.056-7.06-23.071-14.635
	c-1.155-1.453-1.164-2.217,0.019-3.609c3.869-4.558,7.565-9.263,11.342-13.927c2.943,2.302,5.831,4.572,8.733,6.825
	c4.564,3.544,9.924,5.332,15.51,5.746c3.072,0.229,6.51-0.633,9.349-1.943c4.942-2.281,5.143-7.409,0.372-9.995
	c-5.534-3-11.436-5.32-17.164-7.967c-7.844-3.624-16.036-6.916-20.486-15.025c-7.593-13.835-2.51-31.795,13.848-37.606
	c14.782-5.252,29.42-4.226,43,4.479c0.456,0.293,0.896,0.618,1.307,0.971c2.073,1.778,4.133,3.57,6.365,5.502
	c-4.027,5.024-7.836,9.893-11.833,14.603c-0.45,0.529-2.134,0.535-2.944,0.15c-4.602-2.189-8.903-5.322-13.716-6.662
	c-4.189-1.166-9.186-1.986-13.099,1.664c-2.576,2.403-2.321,6.256,0.818,7.869c5.61,2.883,11.538,5.149,17.138,8.05
	c5.992,3.104,12.297,5.974,17.486,10.159c6.342,5.114,7.923,12.863,6.991,20.746c-0.617,5.209-2.203,10.21-5.926,14.378
	c-4.595,5.142-10.194,8.372-16.733,10.204c-0.582,0.163-1.094,0.573-1.44,1.094C265.521,508.367,257.48,508.367,249.126,508.367z"/>
<path fill="#FFFFFF" d="M155.487,508.367c-0.526-0.438-0.678-1.214-0.961-1.265c-9.825-1.776-17.203-7.485-23.592-14.715
	c-0.579-0.655-0.922-2.376-0.499-2.925c3.201-4.146,6.666-8.087,9.955-12.167c1.64-2.035,2.855-2.042,4.775-0.114
	c6.516,6.545,14.454,10.354,23.747,10.304c2.941-0.016,6.157-1.291,8.741-2.837c3.666-2.193,2.501-7.543-2.155-9.76
	c-7.351-3.498-14.941-6.497-22.263-10.051c-5.851-2.839-11.212-6.542-14.647-12.285c-1.235-2.064-2.28-4.451-2.616-6.805
	c-0.875-6.114-0.886-12.255,1.948-18.005c3.914-7.939,10.736-12.264,18.972-14.281c11.178-2.738,22.365-2.296,32.836,2.737
	c4.802,2.309,8.951,5.977,13.797,9.305c-3.352,4.128-6.083,7.625-8.968,10.99c-1.524,1.779-3.146,4.363-5.036,4.671
	c-1.642,0.269-3.792-2.063-5.597-3.405c-5.505-4.096-11.83-4.846-18.322-4.196c-2.672,0.268-5.2,1.767-5.727,4.955
	c-0.441,2.672,2.073,5.336,5.771,7.019c9.059,4.12,18.293,7.96,26.979,12.774c15.531,8.608,14.023,30.806,3.728,40.583
	c-4.275,4.061-9.319,6.927-15.188,8.159c-0.582,0.122-1.096,0.566-1.442,1.088C171.881,508.367,163.841,508.367,155.487,508.367z"/>
<path fill="#FFFFFF" d="M308.7,284.971c0.743,0.45,1.096,1.134,1.622,1.315c15.596,5.383,31.212,10.71,46.818,16.063
	c3.327,1.141,6.63,2.351,10.675,3.789c-5.297,1.625-9.879,3.084-14.503,4.398c-0.777,0.22-1.776-0.059-2.601-0.33
	c-14.654-4.823-29.29-9.703-43.958-14.483c-1.09-0.355-2.498-0.354-3.587,0.004c-14.353,4.722-28.668,9.558-43.017,14.292
	c-1.2,0.396-2.669,0.615-3.854,0.305c-4.442-1.159-8.818-2.572-14.046-4.138c6.512-2.352,12.209-4.496,17.963-6.471
	c13.17-4.521,26.371-8.957,39.549-13.455c0.369-0.126,0.633-0.563,0.749-1.072C303.007,284.971,305.698,284.971,308.7,284.971z"/>
<path fill="#FFFFFF" d="M337.548,311.907c2.159,0.791,4.092,1.424,6.128,2.092c0,18.933,0,37.943,0,57.103
	c-6.853,0-13.591,0-20.329,0c-0.006-0.122-0.013-0.244-0.02-0.366c1.383-0.086,2.765-0.172,4.408-0.275
	c0-7.856,0.034-15.629-0.025-23.401c-0.014-1.733-0.833-2.586-2.871-2.619c-9.811-0.159-9.81-0.23-9.81,9.667
	c0,4.79-0.057,9.581,0.051,14.368c0.02,0.909,0.69,1.804,1.04,2.655c-3.366,0-7.323,0-11.28,0c-0.012-0.115-0.023-0.229-0.034-0.344
	c2.151,0,4.303,0,6.866,0c0-8.248,0.068-16.221-0.117-24.188c-0.017-0.719-1.612-1.888-2.576-2.004
	c-2.416-0.29-4.895-0.002-7.339-0.125c-2.069-0.104-2.716,0.753-2.693,2.75c0.079,7.128-0.012,14.258,0.087,21.386
	c0.012,0.862,0.785,1.713,1.2,2.558c-10.961,0-22.3,0-33.873,0c-0.054-0.992-0.15-1.951-0.151-2.91
	c-0.009-17.154,0.021-34.309-0.042-51.463c-0.008-2.099,0.356-3.129,2.724-3.843c11.384-3.43,22.653-7.245,34.006-10.784
	c1.323-0.413,3.012-0.278,4.367,0.137C317.308,305.374,327.308,308.583,337.548,311.907 M294.246,344.78
	c-3.1-0.093-6.204-0.29-9.299-0.201c-0.686,0.02-1.918,1.038-1.928,1.612c-0.127,8.084-0.086,16.172-0.086,24.197
	c4.221,0,8.059,0,11.756,0C294.689,361.868,294.689,353.544,294.246,344.78z"/>
<path fill="#FFFFFF" d="M488.932,426.098c0,3.661,0,6.988,0,10.13c-5.224,0.65-10.407,0.774-15.307,2.019
	c-9.201,2.336-15.159,8.482-15.374,19.017c-0.331,16.238-0.087,32.487-0.087,48.915c-8.678,0-17.193,0-25.897,0
	c0-30.546,0-61.12,0-91.907c7.762,0,15.609,0,23.802,0c0,2.687,0,5.501,0,8.816c3.086-2.115,5.726-3.878,8.316-5.71
	c6.861-4.852,14.72-4.078,22.434-3.857c0.729,0.021,1.942,1.622,2.016,2.562C489.087,419.291,488.932,422.534,488.932,426.098z"/>
<path fill="#FFFFFF" d="M235.488,310.372c9.224,2.69,18.176,5.327,27.079,8.12c0.716,0.225,1.557,1.523,1.561,2.327
	c0.092,15.807,0.068,31.615,0.068,47.59c-20.751,0-41.31,0-62.203,0c0-1.209,0-2.397,0-3.584c0-14.38,0.049-28.76-0.054-43.139
	c-0.016-2.152,0.665-3.056,2.697-3.643c8.961-2.588,17.864-5.382,26.828-7.964C232.59,309.754,233.951,310.245,235.488,310.372
	 M230.742,349.797c0.004-4.775,0.072-9.551-0.002-14.326c-0.127-8.17,1.541-6.879-7.323-7.037c-2.371-0.042-3.402,1.021-3.38,3.384
	c0.051,5.552-0.026,11.106,0.061,16.657c0.014,0.872,0.376,2.017,0.996,2.547C222.91,352.58,228.592,352.073,230.742,349.797
	 M246.138,340.151c0-1.554-0.042-3.109,0.007-4.662c0.253-8.032-0.411-6.973-7.355-7.058c-2.378-0.029-3.399,1.042-3.369,3.396
	c0.055,4.328,0.104,8.66-0.003,12.986c-0.201,8.033,0.423,6.999,7.369,7.043c0.111,0.001,0.27,0.048,0.326-0.007
	c1.016-1.006,2.694-1.911,2.889-3.063C246.438,346.194,246.138,343.48,246.138,340.151z"/>
<path fill="#FFFFFF" d="M345.797,334.466c0-4.569,0.043-8.804-0.021-13.037c-0.026-1.724,0.294-2.618,2.304-3.202
	c8.949-2.603,17.744-5.75,26.738-8.168c2.371-0.637,5.34,0.33,7.884,1.074c7.819,2.289,15.581,4.778,23.315,7.339
	c0.827,0.274,1.894,1.525,1.899,2.329c0.112,15.804,0.084,31.609,0.084,47.595c-20.722,0-41.274,0-62.203,0
	C345.797,357.218,345.797,346.009,345.797,334.466 M364.029,350.373c1.979,1.695,7.664,2.208,9.483,0.654
	c0.62-0.529,0.979-1.672,0.999-2.545c0.101-4.218-0.013-8.44,0.059-12.659c0.138-8.226,0.046-7.303-7.7-7.421
	c-2.339-0.036-3.108,0.733-3.058,3.065C363.945,337.572,363.863,343.682,364.029,350.373 M389.94,348.527
	c0-4.118,0-8.235,0.001-12.353c0-8.07-0.046-8.068-8.104-7.765c-1.794,0.067-2.646,0.545-2.624,2.48
	c0.069,6.12,0.005,12.242,0.057,18.362c0.005,0.645,0.245,1.52,0.7,1.888C382.356,353.073,388.443,351.789,389.94,348.527z"/>
</svg>
